<?xml version="1.0" standalone="no"?>
<!DOCTYPE svg PUBLIC "-//W3C//DTD SVG 20010904//EN"
 "http://www.w3.org/TR/2001/REC-SVG-20010904/DTD/svg10.dtd">
<svg version="1.0" xmlns="http://www.w3.org/2000/svg"
 width="300.000000pt" height="296.000000pt" viewBox="0 0 300.000000 296.000000"
 preserveAspectRatio="xMidYMid meet">
<metadata>
Created by potrace 1.10, written by Peter Selinger 2001-2011
</metadata>
<g transform="translate(0.000000,296.000000) scale(0.100000,-0.100000)"
fill="#000000" stroke="none">
<path d="M120 2415 c-25 -7 -55 -16 -68 -20 -29 -10 -36 -40 -27 -130 8 -86
27 -122 93 -172 49 -37 80 -41 120 -16 82 51 107 98 115 211 5 80 4 83 -19 99
-24 16 -125 43 -154 42 -8 0 -35 -6 -60 -14z m162 -34 c36 -13 52 -45 38 -71
-6 -12 -7 -20 -1 -20 5 0 8 -8 6 -17 -2 -10 -7 -35 -10 -56 -7 -43 -68 -111
-111 -121 -37 -10 -111 43 -141 101 -10 19 -17 91 -14 143 3 48 149 74 233 41z"/>
<path d="M193 2304 c-31 -29 -41 -34 -55 -25 -25 16 -45 4 -50 -29 -2 -16 -1
-27 3 -25 4 3 14 -6 22 -19 20 -30 53 -39 72 -19 8 8 15 12 15 8 0 -12 59 36
80 65 16 22 18 34 10 54 -14 38 -50 34 -97 -10z m87 2 c0 -7 -27 -37 -61 -66
l-60 -53 -30 29 c-30 28 -36 48 -19 59 5 3 18 -11 28 -32 l19 -37 16 31 c29
56 107 106 107 69z"/>
<path d="M551 2384 c-21 -26 -21 -37 -21 -471 0 -287 4 -451 10 -464 10 -19
29 -19 719 -19 820 0 741 -12 741 110 0 72 0 73 20 55 13 -12 20 -31 20 -56 0
-54 41 -98 97 -106 41 -5 42 -6 48 -55 4 -27 5 -51 4 -52 -2 -2 -25 -17 -50
-34 -110 -74 -149 -159 -233 -514 -7 -31 -25 -34 -274 -47 -125 -6 -156 -11
-172 -26 -11 -10 -20 -24 -20 -32 0 -7 -11 -13 -25 -13 -19 0 -26 7 -31 28
-73 316 -130 518 -150 526 -9 3 -175 6 -370 6 l-354 0 -11 -23 c-8 -18 -3 -53
26 -162 82 -313 115 -429 122 -436 12 -12 994 -12 1005 -1 6 6 8 20 6 33 -3
23 -6 24 -106 27 -76 2 -102 6 -99 15 6 18 48 37 84 37 26 0 31 -3 27 -18 -5
-16 -5 -16 9 0 12 15 37 19 158 23 176 6 167 4 175 27 3 10 9 16 14 13 9 -6
18 24 40 130 6 33 16 68 21 77 5 9 12 36 15 60 10 64 51 143 100 194 48 49 60
52 107 27 59 -30 127 -19 168 30 l27 31 58 -13 c33 -7 75 -22 95 -32 80 -40
154 -167 151 -259 -1 -40 5 -80 23 -170 16 -76 38 -178 42 -197 6 -24 -29
-104 -53 -124 -11 -9 -83 -13 -272 -13 -329 -2 -320 -3 -339 42 -8 20 -22 42
-32 48 -9 7 -13 15 -10 18 3 4 75 16 160 27 273 35 350 47 356 53 4 3 -8 6
-25 6 -30 0 -32 3 -50 63 -10 34 -29 106 -42 159 -13 53 -27 95 -31 92 -6 -4
63 -293 75 -312 4 -7 -298 -53 -341 -52 -7 0 -13 10 -14 23 0 12 -5 31 -10 42
-6 14 -7 6 -3 -28 5 -43 3 -47 -16 -47 -19 0 -20 4 -14 38 4 20 10 43 13 50 4
7 2 41 -6 76 -21 105 -31 222 -22 268 12 61 11 74 -1 62 -21 -21 -23 -147 -5
-260 10 -60 21 -113 25 -117 4 -5 0 -23 -8 -40 -9 -18 -15 -42 -14 -53 4 -27
-27 -34 -146 -34 -88 0 -155 -14 -183 -37 -13 -11 -141 -13 -704 -13 -378 1
-690 -2 -693 -5 -3 -3 306 -5 686 -5 l692 0 -20 -33 c-31 -50 -27 -55 40 -56
33 0 64 -2 68 -5 5 -3 34 2 65 10 40 10 63 12 76 5 27 -15 961 -15 961 -1 0 8
-35 10 -105 8 -58 -2 -105 -1 -105 2 0 3 9 11 21 18 26 16 49 71 49 114 0 18
-16 107 -35 198 -19 91 -35 166 -35 167 0 0 20 13 44 27 48 28 70 56 80 104
13 55 -9 96 -80 152 l-64 50 0 56 c0 68 -15 98 -74 147 -31 25 -49 49 -55 75
-6 20 -19 75 -31 122 -12 46 -30 99 -42 118 -46 74 -168 116 -272 93 -99 -22
-153 -78 -172 -178 -4 -20 -16 -53 -28 -72 l-21 -36 -3 364 c-2 322 -4 367
-19 383 -15 17 -53 18 -714 18 l-698 0 -20 -26z m1423 -6 c14 -20 16 -80 16
-458 0 -378 -2 -438 -16 -458 l-15 -22 -698 0 c-628 0 -699 2 -705 16 -3 9 -6
215 -6 458 0 383 2 444 16 464 l15 22 689 0 689 0 15 -22z m439 -514 c55 -39
71 -70 105 -203 29 -110 31 -115 85 -169 53 -53 57 -61 62 -116 7 -74 14 -86
72 -132 65 -51 73 -63 73 -100 0 -35 -41 -94 -66 -94 -8 0 -22 17 -30 38 -34
80 -49 106 -85 143 -45 46 -78 64 -163 85 -56 14 -73 23 -105 60 -34 39 -61
99 -61 137 0 8 18 30 40 47 34 27 40 37 40 71 0 45 -27 78 -65 80 -67 4 -126
44 -151 105 -18 44 -20 41 24 64 30 17 51 20 110 17 61 -3 80 -9 115 -33z
m-283 -66 c0 -46 100 -118 163 -118 41 0 60 -19 55 -56 -2 -22 -10 -30 -36
-36 -56 -15 -65 -78 -22 -174 19 -45 46 -76 80 -94 21 -11 20 -13 -25 -41 -69
-44 -95 -46 -134 -13 -30 25 -31 29 -17 40 15 10 15 20 6 75 -5 35 -10 66 -10
69 0 3 -20 5 -44 5 -29 0 -51 6 -65 19 -25 23 -29 76 -6 76 8 0 15 7 15 16 0
10 -6 14 -14 11 -7 -3 -26 7 -41 23 l-27 28 27 40 c15 23 31 60 36 84 13 57
38 96 50 77 5 -8 9 -22 9 -31z m-898 -605 c9 -10 27 -67 42 -128 33 -137 92
-364 101 -387 7 -17 -15 -18 -363 -18 -344 0 -371 1 -376 18 -12 41 -76 287
-102 388 -24 95 -26 114 -15 128 12 14 53 16 356 16 313 0 343 -1 357 -17z
m826 -616 c7 -15 14 -40 15 -55 l2 -27 -90 0 c-49 0 -107 -4 -127 -9 -52 -12
-51 11 2 31 22 9 40 20 40 25 0 4 -2 8 -5 8 -7 0 -75 -36 -97 -52 -25 -18 -33
-3 -14 26 10 15 29 28 51 32 19 3 35 10 35 15 0 27 -84 -12 -106 -50 -10 -17
-24 -31 -31 -31 -18 0 -17 5 12 50 32 51 88 69 210 67 88 -2 90 -3 103 -30z"/>
<path d="M1722 2147 c-7 -8 -9 -17 -6 -20 4 -3 -14 -26 -39 -50 -29 -29 -60
-75 -86 -131 -25 -50 -48 -86 -56 -86 -9 0 -15 -10 -15 -24 0 -40 -110 -75
-124 -40 -4 11 -14 14 -34 9 -31 -6 -50 13 -122 120 -18 28 -47 65 -63 82 -17
18 -32 40 -33 49 -3 19 -24 35 -39 31 -5 -2 -14 -13 -19 -24 -6 -12 -25 -28
-43 -37 -36 -17 -107 -107 -137 -174 -10 -23 -25 -42 -33 -42 -7 0 -18 -11
-22 -24 -6 -13 -29 -32 -57 -45 -40 -19 -51 -21 -71 -10 -20 11 -26 10 -40 -3
-18 -19 -12 -45 13 -55 11 -4 23 1 35 15 9 12 23 22 30 22 7 0 31 11 55 25 23
14 50 22 58 19 24 -9 48 16 41 43 -16 67 138 258 180 223 11 -10 18 -10 29 -1
15 13 41 -15 129 -141 26 -37 56 -73 66 -80 10 -7 20 -22 22 -33 5 -25 47 -33
55 -11 4 10 18 16 38 16 17 0 45 7 61 16 17 9 40 16 51 16 32 -2 48 21 34 48
-9 17 -4 34 31 101 48 92 96 143 136 144 24 0 28 4 28 30 0 23 -5 31 -21 33
-11 2 -26 -3 -32 -11z"/>
<path d="M1423 1995 c0 -33 2 -45 4 -27 2 18 2 45 0 60 -2 15 -4 0 -4 -33z"/>
<path d="M683 1875 c0 -33 2 -45 4 -27 2 18 2 45 0 60 -2 15 -4 0 -4 -33z"/>
<path d="M1213 1735 c0 -33 2 -45 4 -27 2 18 2 45 0 60 -2 15 -4 0 -4 -33z"/>
<path d="M2090 1670 c0 -11 7 -20 15 -20 8 0 15 9 15 20 0 11 -7 20 -15 20 -8
0 -15 -9 -15 -20z"/>
<path d="M2282 1648 c-7 -7 -12 -21 -11 -32 0 -20 1 -20 9 2 5 12 17 22 25 22
9 0 13 5 10 10 -8 13 -18 13 -33 -2z"/>
<path d="M872 1093 c-83 -41 -105 -145 -50 -234 79 -129 246 -150 303 -39 34
66 15 165 -42 224 -64 66 -141 84 -211 49z m72 -61 c20 -74 20 -81 -3 -75 -26
7 -35 -24 -14 -51 12 -15 27 -21 47 -19 16 1 53 -10 83 -24 59 -29 58 -36 -4
-74 -63 -39 -137 -7 -208 89 -51 69 -48 104 14 165 27 26 53 47 59 47 5 0 17
-26 26 -58z m53 36 c42 -19 73 -49 94 -90 22 -42 25 -104 7 -111 -19 -6 -88
31 -88 48 0 8 -9 24 -19 34 -22 22 -45 96 -37 117 7 17 8 17 43 2z m-29 -134
c24 -17 29 -34 9 -34 -20 0 -58 30 -52 41 8 13 17 11 43 -7z"/>
<path d="M152 1638 c-17 -17 -17 -269 0 -286 8 -8 51 -12 128 -12 154 0 150
-4 150 161 0 84 -4 129 -12 137 -8 8 -52 12 -133 12 -81 0 -125 -4 -133 -12z
m230 -35 c25 -22 23 -36 -3 -21 -17 11 -23 10 -39 -9 l-18 -23 -25 20 c-14 11
-31 20 -38 20 -25 0 -49 -33 -49 -68 0 -23 -4 -33 -12 -29 -20 7 -15 -83 5
-94 10 -6 18 -5 22 2 7 10 62 7 138 -7 23 -5 27 -2 28 18 1 17 2 19 6 5 10
-38 -13 -46 -120 -44 l-102 2 -3 53 c-2 29 -6 50 -10 48 -9 -5 -7 47 3 84 5
19 4 22 -4 10 -17 -24 -13 -2 5 25 15 23 21 24 107 24 70 0 96 -4 109 -16z
m-83 -95 c10 -35 22 -71 26 -80 5 -13 2 -18 -10 -18 -9 0 -19 9 -22 20 -4 14
-14 20 -33 20 -19 0 -29 -6 -33 -20 -5 -21 -27 -28 -27 -8 0 6 10 42 22 80 29
91 50 92 77 6z m81 -18 c0 -64 -3 -80 -15 -80 -12 0 -15 16 -15 80 0 64 3 80
15 80 12 0 15 -16 15 -80z"/>
<path d="M250 1516 c0 -8 -3 -21 -6 -30 -4 -12 0 -16 16 -16 16 0 20 4 16 16
-3 9 -6 22 -6 30 0 8 -4 14 -10 14 -5 0 -10 -6 -10 -14z"/>
<path d="M263 939 l5 -81 -29 28 c-38 36 -37 19 1 -26 l30 -34 35 34 c19 18
33 36 30 39 -3 2 -16 -6 -30 -19 l-25 -23 0 81 c0 55 -4 82 -11 82 -9 0 -10
-24 -6 -81z"/>
<path d="M170 790 c0 -6 40 -10 100 -10 60 0 100 4 100 10 0 6 -40 10 -100 10
-60 0 -100 -4 -100 -10z"/>
</g>
</svg>
